<svg xmlns="http://www.w3.org/2000/svg" width="20.065" height="19.968" viewBox="0 0 20.065 19.968">
  <g id="Group_3375" data-name="Group 3375" transform="translate(-1720.968 -10)">
    <g id="Group_3373" data-name="Group 3373" transform="translate(-24 -88.298)">
      <g id="Group_2416" data-name="Group 2416" transform="translate(29.472 -40.702)">
        <g id="Group_76" data-name="Group 76" transform="translate(1716 139)">
          <g id="Group_75" data-name="Group 75" transform="translate(0 0)">
            <g id="Group_65" data-name="Group 65">
              <g id="Group_64" data-name="Group 64">
                <path id="Subtraction_2" data-name="Subtraction 2" d="M15.368,12.813H3.475a.76.76,0,0,1-.742-.585L.021.942A.763.763,0,0,1,.764,0H18.291a.764.764,0,0,1,.74.956L16.107,12.243a.764.764,0,0,1-.739.57ZM5.514,7.4a.62.62,0,0,0,0,1.241h7.965a.62.62,0,1,0,0-1.241ZM4.489,4.193a.62.62,0,1,0,0,1.241h9.7a.62.62,0,0,0,0-1.241Z" transform="translate(0 6.655)" stroke="rgba(0,0,0,0)" stroke-width="1"/>
                <g id="Group_62" data-name="Group 62" transform="translate(2.943)">
                  <path id="Path_60" data-name="Path 60" d="M546.243,448.407a.764.764,0,0,1-.668-1.132l3.615-6.558a.764.764,0,1,1,1.338.738l-3.615,6.558a.763.763,0,0,1-.669.394Z" transform="translate(-545.48 -440.321)"/>
                </g>
                <g id="Group_63" data-name="Group 63" transform="translate(11.332 0)">
                  <path id="Path_61" data-name="Path 61" d="M637.716,448.409a.763.763,0,0,1-.669-.4l-3.615-6.558a.764.764,0,1,1,1.338-.738l3.615,6.56a.764.764,0,0,1-.668,1.132Z" transform="translate(-633.336 -440.322)"/>
                </g>
              </g>
            </g>
          </g>
        </g>
      </g>
    </g>
  </g>
</svg>
