<svg xmlns="http://www.w3.org/2000/svg" xmlns:xlink="http://www.w3.org/1999/xlink" width="29.25" height="26.965" viewBox="0 0 29.25 26.965">
  <defs>
    <clipPath id="clip-path">
      <rect id="Rectangle_2701" data-name="Rectangle 2701" width="29.25" height="26.965" fill="#878787"/>
    </clipPath>
  </defs>
  <g id="Group_5317" data-name="Group 5317" clip-path="url(#clip-path)">
    <path id="Path_1776" data-name="Path 1776" d="M29.25,142.373H24.68v1.8a1.828,1.828,0,1,1-3.656.025v-1.828H8.227v1.8a1.828,1.828,0,1,1-3.656.025v-1.828H0V166.6H29.25Zm-1.828,22.395H1.828v-16.91H27.422Z" transform="translate(0 -139.631)" fill="#878787"/>
    <rect id="Rectangle_2691" data-name="Rectangle 2691" width="4.113" height="3.199" transform="translate(9.598 10.055)" fill="#878787"/>
    <rect id="Rectangle_2692" data-name="Rectangle 2692" width="4.113" height="3.199" transform="translate(15.539 10.055)" fill="#878787"/>
    <rect id="Rectangle_2693" data-name="Rectangle 2693" width="4.113" height="3.199" transform="translate(21.481 10.055)" fill="#878787"/>
    <rect id="Rectangle_2694" data-name="Rectangle 2694" width="4.113" height="3.199" transform="translate(9.598 15.082)" fill="#878787"/>
    <rect id="Rectangle_2695" data-name="Rectangle 2695" width="4.113" height="3.199" transform="translate(3.656 15.082)" fill="#878787"/>
    <rect id="Rectangle_2696" data-name="Rectangle 2696" width="4.113" height="3.199" transform="translate(15.539 15.082)" fill="#878787"/>
    <rect id="Rectangle_2697" data-name="Rectangle 2697" width="4.113" height="3.199" transform="translate(21.481 15.082)" fill="#878787"/>
    <rect id="Rectangle_2698" data-name="Rectangle 2698" width="4.113" height="3.199" transform="translate(9.598 20.11)" fill="#878787"/>
    <rect id="Rectangle_2699" data-name="Rectangle 2699" width="4.113" height="3.199" transform="translate(3.656 20.11)" fill="#878787"/>
    <rect id="Rectangle_2700" data-name="Rectangle 2700" width="4.113" height="3.199" transform="translate(15.539 20.11)" fill="#878787"/>
    <path id="Path_1777" data-name="Path 1777" d="M284.746,4.571a.914.914,0,0,0,.9.914.925.925,0,0,0,.933-.931V.931A.925.925,0,0,0,285.642,0a.914.914,0,0,0-.9.914Z" transform="translate(-279.262 -0.001)" fill="#878787"/>
    <path id="Path_1778" data-name="Path 1778" d="M1138.983,4.571a.914.914,0,0,0,.9.914.925.925,0,0,0,.933-.931V.931a.925.925,0,0,0-.933-.931.914.914,0,0,0-.9.914Z" transform="translate(-1117.045 -0.001)" fill="#878787"/>
  </g>
</svg>
