<svg xmlns="http://www.w3.org/2000/svg" width="13.985" height="15.069" viewBox="0 0 13.985 15.069">
  <g id="Group_5292" data-name="Group 5292" transform="translate(-333.971 -782.645)">
    <g id="Group_1417" data-name="Group 1417" transform="translate(335.3 786.944)">
      <path id="Path_1311" data-name="Path 1311" d="M347.254,807.982h-6.328a1.45,1.45,0,0,1-1.442-1.3l-1.009-9.473H349.7l-1.009,9.473A1.45,1.45,0,0,1,347.254,807.982Z" transform="translate(-338.475 -797.212)" fill="#0d0201"/>
    </g>
    <g id="Group_1418" data-name="Group 1418" transform="translate(333.971 783.72)">
      <rect id="Rectangle_392" data-name="Rectangle 392" width="13.985" height="2.149" rx="1.075" fill="#0d0201"/>
    </g>
    <g id="Group_1419" data-name="Group 1419" transform="translate(338.298 782.645)">
      <rect id="Rectangle_393" data-name="Rectangle 393" width="5.33" height="2.149" rx="1.075" fill="#0d0201"/>
    </g>
    <g id="Group_1420" data-name="Group 1420" transform="translate(338.298 789.259)">
      <path id="Path_1312" data-name="Path 1312" d="M349.685,810.735a.59.59,0,0,1-.586-.53l-.46-4.5a.59.59,0,1,1,1.174-.12l.46,4.5a.59.59,0,0,1-.527.647A.522.522,0,0,1,349.685,810.735Z" transform="translate(-348.636 -805.057)" fill="#0d0201"/>
    </g>
    <g id="Group_1421" data-name="Group 1421" transform="translate(341.595 789.259)">
      <path id="Path_1313" data-name="Path 1313" d="M360.4,810.735a.532.532,0,0,1-.061,0,.59.59,0,0,1-.527-.647l.46-4.5a.59.59,0,1,1,1.174.12l-.46,4.5A.59.59,0,0,1,360.4,810.735Z" transform="translate(-359.808 -805.057)" fill="#0d0201"/>
    </g>
  </g>
</svg>
