<svg xmlns="http://www.w3.org/2000/svg" width="22.077" height="22.077" viewBox="0 0 22.077 22.077">
  <g id="Group_5399" data-name="Group 5399" transform="translate(-1475 -4517)">
    <g id="Group_4280" data-name="Group 4280" transform="translate(1481.308 4523.045)">
      <g id="Group_4279" data-name="Group 4279" transform="translate(0 7.608) rotate(-90)">
        <rect id="Rectangle_2369" data-name="Rectangle 2369" width="5.223" height="1.817" transform="translate(2.385 3.922)" fill="#0d0201"/>
        <path id="Path_1471" data-name="Path 1471" d="M1.8,2.073l4.729.282L6.505.347,0,0Z" transform="translate(6.062 1.545) rotate(131)" fill="#0d0201"/>
        <path id="Path_1472" data-name="Path 1472" d="M1.8.282,6.531,0,6.505,2.007,0,2.355Z" transform="matrix(-0.695, -0.719, 0.719, -0.695, 4.537, 9.641)" fill="#0d0201"/>
      </g>
      <path id="Path_1482" data-name="Path 1482" d="M3494.116,4574.807h7.066" transform="translate(-3492.829 -4564.514)" fill="none" stroke="#0d0201" stroke-width="1"/>
    </g>
    <g id="Path_1483" data-name="Path 1483" transform="translate(1475 4517)" fill="none">
      <path d="M0,0H22.077V22.077H0Z" stroke="none"/>
      <path d="M 1 1 L 1 21.07719993591309 L 21.07719993591309 21.07719993591309 L 21.07719993591309 1 L 1 1 M 0 0 L 22.07719993591309 0 L 22.07719993591309 22.07719993591309 L 0 22.07719993591309 L 0 0 Z" stroke="none" fill="#0d0201"/>
    </g>
  </g>
</svg>
