<svg id="Group_4449" data-name="Group 4449" xmlns="http://www.w3.org/2000/svg" xmlns:xlink="http://www.w3.org/1999/xlink" width="61.017" height="73.512" viewBox="0 0 61.017 73.512">
  <defs>
    <clipPath id="clip-path">
      <rect id="Rectangle_2414" data-name="Rectangle 2414" width="61.017" height="73.512" fill="none"/>
    </clipPath>
  </defs>
  <g id="Group_4448" data-name="Group 4448" clip-path="url(#clip-path)">
    <path id="Path_1578" data-name="Path 1578" d="M33.586,12.451,36.795,1.223H15.284C5.427,1.219.441.1.031.008L0,0H0V0A21.618,21.618,0,0,1,.322,3.634L.339,36.94S.576,54.929,13.916,65.976L13.757,52.4V43.935a7.344,7.344,0,0,0-.4-2.205H24.993L28.3,30.5H13.757V12.451Z" transform="translate(0 -0.001)" fill="#fff"/>
    <path id="Path_1579" data-name="Path 1579" d="M79.127,70.815a39.861,39.861,0,0,0,8.748,2.7h0a39.352,39.352,0,0,0,9.692-3.133c20.165-9.674,20.478-33.44,20.478-33.44V4.974l.008.006A26.731,26.731,0,0,1,118.385,0s-5,1.222-15.338,1.222H99.193Z" transform="translate(-57.368)" fill="#878787"/>
  </g>
</svg>
