<svg xmlns="http://www.w3.org/2000/svg" width="21.234" height="19.925" viewBox="0 0 21.234 19.925">
  <path id="Exclusion_3" data-name="Exclusion 3" d="M22.294,37.925H17.6v-13.4h4.694v13.4Zm6.588-.171H24.2v-13.4h4.686v1.8a6.074,6.074,0,0,1,1.858-1.7,4.862,4.862,0,0,1,2.389-.522,4.994,4.994,0,0,1,3.282,1.117c1.21,1.042,1.823,2.753,1.823,5.086v7.615H33.561V30.436a4.133,4.133,0,0,0-.436-2.063,1.883,1.883,0,0,0-1.753-.939,2.234,2.234,0,0,0-1.9.943,3.646,3.646,0,0,0-.587,2.1v7.28ZM19.617,22.727A2.5,2.5,0,0,1,17,20.365,2.5,2.5,0,0,1,19.617,18a2.5,2.5,0,0,1,2.616,2.365A2.5,2.5,0,0,1,19.617,22.727Z" transform="translate(-17 -18)" fill="#fff"/>
</svg>
