<svg id="Fire_Service_College_UK_logo" xmlns="http://www.w3.org/2000/svg" width="223.523" height="223.493" viewBox="0 0 223.523 223.493">
  <path id="Path_1545" data-name="Path 1545" d="M180.788,113.605A67.048,67.048,0,1,1,113.74,46.494a67.1,67.1,0,0,1,67.048,67.111" transform="translate(-1.899 -1.891)" fill="#e31e26"/>
  <path id="Path_1546" data-name="Path 1546" d="M182.132,37.593c-.032.032-.032.065-.065.065.094-.065.094-.065.065-.065m-24.54,75.65a43.619,43.619,0,1,1-43.619-43.651,43.619,43.619,0,0,1,43.619,43.651m3.524,11.809,12.476,4.286-2.762,8.127-2.127-.7,2.032-5.937-2.762-.952L166.1,135.37l-2.127-.7,1.9-5.524-3.4-1.143-2.1,6.127-2.127-.73Zm5.874-6.571,2.222.222-.477,5.016-5.238-.508a6.051,6.051,0,0,1-1.206-2.254,6.946,6.946,0,0,1-.349-2.857,5.692,5.692,0,0,1,1.048-2.952,5.615,5.615,0,0,1,2.54-1.842,8.512,8.512,0,0,1,3.778-.412,8.246,8.246,0,0,1,3.618,1.11,5.672,5.672,0,0,1,2.127,2.223,5.763,5.763,0,0,1,.476,3.015,5.291,5.291,0,0,1-1.3,3.238,4.494,4.494,0,0,1-3.015,1.3l-.286-2.349a2.8,2.8,0,0,0,1.651-.793,2.7,2.7,0,0,0,.7-1.588,3.165,3.165,0,0,0-.857-2.539,5.062,5.062,0,0,0-3.207-1.206,5.54,5.54,0,0,0-3.714.666,2.722,2.722,0,0,0-1.27,2.191,3.325,3.325,0,0,0,.159,1.46,4.282,4.282,0,0,0,.7,1.366l1.651.159Zm-5.714-16.476,13.047-1.937,1.27,8.508-2.222.317-.921-6.19-2.889.444.857,5.747-2.191.317-.858-5.747-3.555.508.952,6.412-2.222.35Zm-3.3-9.239,12.254-4.635.826,2.191-10.159,3.841,2.064,5.429-2.1.793Zm-5.047-8.508,11.048-6.984,1.238,1.968-9.175,5.809,3.111,4.921-1.873,1.175Zm-4.413-14.095a8.732,8.732,0,0,1,3.238-2.254,5.473,5.473,0,0,1,2.984-.254,5.688,5.688,0,0,1,2.6,1.524,5.166,5.166,0,0,1,1.651,4.1,7.424,7.424,0,0,1-2.413,4.7,7.618,7.618,0,0,1-4.825,2.54,5.583,5.583,0,0,1-5.651-5.556,7.274,7.274,0,0,1,2.413-4.793m1.778,1.619a5.335,5.335,0,0,0-1.746,3.079,2.868,2.868,0,0,0,3.27,3.239,5.664,5.664,0,0,0,3.079-1.841,5.265,5.265,0,0,0,1.746-3.048,2.741,2.741,0,0,0-.888-2.381,2.874,2.874,0,0,0-2.413-.857,5.241,5.241,0,0,0-3.048,1.81m-7.016-3.112,1.524,1.842a5.63,5.63,0,0,1-3.143,1.9,4.951,4.951,0,0,1-5.492-3.9,7.6,7.6,0,0,1,1.175-5.206,7.679,7.679,0,0,1,4.063-3.715,4.7,4.7,0,0,1,4.127.476,4.653,4.653,0,0,1,2.19,2.731,5.362,5.362,0,0,1-.159,2.953l-2.317-.635a2.969,2.969,0,0,0,.1-1.873,2.626,2.626,0,0,0-1.079-1.27,2.5,2.5,0,0,0-2.317-.159,5.478,5.478,0,0,0-2.444,2.571,5.907,5.907,0,0,0-1.111,3.461,2.371,2.371,0,0,0,1.238,1.936,2.163,2.163,0,0,0,1.714.222,4.11,4.11,0,0,0,1.937-1.334m-23.81-3.714L122.1,52.037l8.413,1.715-.445,2.191L123.941,54.7l-.6,2.857,5.714,1.175-.444,2.158-5.714-1.143-.7,3.492,6.349,1.3-.444,2.191Zm-4.318-5.016,2.317.73a5.932,5.932,0,0,1-1.682,3.3,4.629,4.629,0,0,1-3.016,1.11,4.729,4.729,0,0,1-3.714-1.524,7.325,7.325,0,0,1-1.746-5.016,7.733,7.733,0,0,1,1.461-5.334,4.777,4.777,0,0,1,3.746-1.778,4.615,4.615,0,0,1,3.3,1.143,5.29,5.29,0,0,1,1.46,2.572l-2.286.7a3.168,3.168,0,0,0-.952-1.619,2.328,2.328,0,0,0-1.588-.508,2.581,2.581,0,0,0-2.064,1.11,5.877,5.877,0,0,0-.7,3.461,6.03,6.03,0,0,0,.921,3.524,2.374,2.374,0,0,0,2.063.984,2.167,2.167,0,0,0,1.588-.7,4.117,4.117,0,0,0,.888-2.159m-11.9,6.1-2.635-12.921,2.286-.476,2.635,12.952Zm-7.461,2.381L87.244,57.529l2.349-.889,6.19,8.1-.794-10.158,2.349-.858.761,13.81ZM83.37,75.5,76.1,64.481l4.1-2.73a7.086,7.086,0,0,1,2.444-1.175,3.077,3.077,0,0,1,1.81.287,4.061,4.061,0,0,1,1.586,1.46,3.709,3.709,0,0,1,.7,2.508,3.543,3.543,0,0,1-1.206,2.254,6.705,6.705,0,0,1,1.651.222,15.822,15.822,0,0,1,2.286,1.079l2.6,1.365-2.35,1.524-2.984-1.46q-1.027-.521-2.1-.952a2.251,2.251,0,0,0-.889-.065,4.828,4.828,0,0,0-1.079.539l-.381.254,3.047,4.6Zm-2.254-7.65,1.46-.953A8.7,8.7,0,0,0,84.2,65.656a1.242,1.242,0,0,0,.286-.825,1.951,1.951,0,0,0-.35-1.017,2,2,0,0,0-.794-.7,1.235,1.235,0,0,0-.889-.032,9.036,9.036,0,0,0-1.651.952l-1.524,1.017Zm-5.238,15.3L66.259,74.1l5.9-6.254,1.619,1.524L69.5,73.941l2.127,2,3.968-4.222,1.619,1.493-3.969,4.254,2.6,2.444,4.445-4.7,1.619,1.524Zm-9.715,7.461.953-2.1c1.587.635,2.73.317,3.46-.889a2.59,2.59,0,0,0,.413-1.714,1.728,1.728,0,0,0-.795-1.175,1.187,1.187,0,0,0-.761-.19,1.354,1.354,0,0,0-.793.286,19.32,19.32,0,0,0-1.651,1.46,6.78,6.78,0,0,1-1.9,1.4,3.332,3.332,0,0,1-1.683.317,4.024,4.024,0,0,1-1.682-.54,3.547,3.547,0,0,1-1.4-1.428,3.634,3.634,0,0,1-.413-1.9A5.751,5.751,0,0,1,60.7,81.91a4.569,4.569,0,0,1,2.509-2.191,4,4,0,0,1,3.174.445l-1.079,2.064a2.319,2.319,0,0,0-1.619-.159,2.044,2.044,0,0,0-1.111,1.048,2.22,2.22,0,0,0-.413,1.428,1.076,1.076,0,0,0,1.524.953,5.749,5.749,0,0,0,1.777-1.428,10.609,10.609,0,0,1,2.159-1.683,3.481,3.481,0,0,1,1.778-.317,4.288,4.288,0,0,1,1.968.666,3.955,3.955,0,0,1,1.9,2.444,4.727,4.727,0,0,1-.794,3.651c-1.428,2.413-3.555,3.015-6.317,1.777m-.349,16.508-12.889-2.826,1.81-8.381,2.19.476-1.333,6.127,2.857.6,1.238-5.682,2.159.476-1.207,5.682,3.493.762L65.5,98.037l2.191.476ZM65.687,118.7l-13.206.222-.065-4.92a7.536,7.536,0,0,1,.286-2.731,3.09,3.09,0,0,1,1.238-1.333,4.267,4.267,0,0,1,2.1-.571,3.843,3.843,0,0,1,2.476.761,3.464,3.464,0,0,1,1.238,2.254,6.143,6.143,0,0,1,1.079-1.269,15.781,15.781,0,0,1,2.127-1.366l2.54-1.428.065,2.793L62.7,112.831c-1.016.635-1.651,1.047-1.937,1.269a1.959,1.959,0,0,0-.508.7,2.906,2.906,0,0,0-.127,1.174v.476l5.492-.063Zm-7.65-2.222L58,114.767a10.339,10.339,0,0,0-.159-2.031,1.445,1.445,0,0,0-.539-.7,1.831,1.831,0,0,0-1.048-.221,1.773,1.773,0,0,0-1.016.254,1.471,1.471,0,0,0-.539.762,11.67,11.67,0,0,0-.065,1.9l.032,1.81Zm8.6,6.857-12.952,2.444-.445-2.317L66.2,121.053Zm2.953,9.524-12.445,4.382-2.666-7.492,2.127-.73,1.873,5.269,2.92-1.015L59.815,128.7l2.1-.762,1.619,4.571,5.27-1.842Zm0,0" transform="translate(-2.132 -1.529)" fill="#fff"/>
  <path id="Path_1547" data-name="Path 1547" d="M55.206,71.111C51.4,68.127,36.1,56.254,36.1,56.254l-5.238.889.984,5.238s16.381,10.6,20.413,13.206c.921-1.524,1.9-3.047,2.952-4.476M48.381,82.889c-3.587-1.81-14.349-7.016-14.349-7.016l-4.667,1.936L31.3,82.476s11.27,3.969,15.112,5.3c.6-1.683,1.238-3.3,1.968-4.889m-4.35,12.793c-4.54-.984-23.874-5.143-23.874-5.143l-4.38,3.048L18.824,97.9s19.62,2.508,24.191,3.048c.253-1.778.6-3.524,1.016-5.271M55.205,71.111C51.4,68.127,36.1,56.254,36.1,56.254l-5.238.889.984,5.238s16.381,10.6,20.413,13.206c.921-1.524,1.9-3.047,2.952-4.476M48.381,82.889c-3.587-1.81-14.349-7.016-14.349-7.016l-4.667,1.936L31.3,82.476s11.27,3.969,15.112,5.3c.6-1.683,1.238-3.3,1.968-4.889m-4.35,12.793c-4.54-.984-23.874-5.143-23.874-5.143l-4.38,3.048L18.824,97.9s19.62,2.508,24.191,3.048c.253-1.778.6-3.524,1.016-5.271m131.143,45.3c3.587,1.777,14.349,6.984,14.349,6.984l4.667-1.937-1.936-4.635s-11.27-3.968-15.112-5.3c-.6,1.651-1.238,3.27-1.968,4.889m4.349-12.825c4.54,1.017,23.874,5.175,23.874,5.175l4.38-3.048-3.047-4.349s-19.62-2.476-24.191-3.015c-.286,1.777-.6,3.524-1.016,5.238M174.951,82.92q1.093,2.4,2.032,4.858c3.747-1.3,15.207-5.365,15.207-5.365l2-4.636-4.7-1.936s-11.111,5.365-14.54,7.079M179.4,95.682c.413,1.714.794,3.46,1.079,5.238,4.508-.539,24.223-3.047,24.223-3.047l3.047-4.349-4.381-3.016S183.745,94.73,179.4,95.683m1.936,19.111c4.54.127,38.223,1.048,38.223,1.048l3.968-3.905L219.555,108s-33.683.985-38.254,1.144c.1,1.9.1,3.778.032,5.651M46.253,136.158c-3.809,1.27-15.111,5.207-15.111,5.207l-1.936,4.7,4.667,1.873s10.762-5.143,14.412-6.921c-.73-1.588-1.428-3.207-2.031-4.858m5.968,12.159c-3.937,2.476-20.54,13.238-20.54,13.238l-.952,5.269,5.206.889s15.651-12.127,19.27-14.984q-1.579-2.146-2.984-4.413m-9.493-25.27c-4.857.571-24.032,3.016-24.032,3.016l-3.047,4.317,4.413,3.048s19.047-4.1,23.745-5.111c-.412-1.746-.793-3.493-1.079-5.271m28.1,45.238c-2.984,3.81-14.857,19.144-14.857,19.144l.921,5.206,5.238-.952s10.6-16.413,13.175-20.445q-2.3-1.387-4.476-2.952M60.38,159.08c-3.841,3.619-27.587,26.158-27.587,26.158l-.032,5.556h5.587s22.412-23.841,26.063-27.714c-1.4-1.3-2.73-2.6-4.031-4M82.6,175.111c-1.777,3.587-6.984,14.381-6.984,14.381l1.937,4.667,4.635-1.936s3.969-11.27,5.3-15.112q-2.484-.9-4.889-2m12.793,4.38c-.984,4.54-5.143,23.874-5.143,23.874l3.048,4.38,4.318-3.047s2.476-19.62,3.047-24.191c-1.777-.286-3.524-.6-5.269-1.016m91.9-11.809,5.206-.889-.952-5.269s-17.619-11.365-20.857-13.46q-1.4,2.262-2.92,4.444c3.047,2.413,18.062,14.158,19.523,15.174M152.285,168c-1.429,1.079-2.921,2.064-4.445,3.016,2.381,3.714,13.333,20.635,13.333,20.635l5.238.952.921-5.206s-12.381-15.968-15.048-19.4m10.318-9.239q-1.9,2.1-3.969,4.032c2.889,3.047,26.318,27.968,26.318,27.968h5.587l-.032-5.556s-25.079-23.809-27.9-26.444m-22,16.128c-1.588.73-3.175,1.429-4.826,2.032,1.27,3.746,5.334,15.239,5.334,15.239l4.635,2,1.936-4.7s-5.365-11.111-7.079-14.572m-12.73,4.445c-1.714.445-3.46.794-5.238,1.111.539,4.476,3.047,24.222,3.047,24.222L130,207.715l3.048-4.381s-4.222-19.619-5.175-24M108.761,181.3c-.126,4.54-1.048,38.223-1.048,38.223l3.905,3.968,3.937-3.969s-.985-33.682-1.144-38.285c-1.9.1-3.778.127-5.651.063M191.65,62.381l.952-5.27-5.206-.889s-16,12.413-19.365,15.048q1.532,2.19,2.92,4.476c3.556-2.286,19.239-12.349,20.7-13.365M152.6,55.619c2.984-3.842,14.825-19.111,14.825-19.111l-.888-5.238-5.27.952S150.793,48.444,148.127,52.6c1.524.952,3.015,1.937,4.476,3.016m10.317,9.332C166.412,61.65,190.6,38.7,190.6,38.7l.065-5.556H185.08S162.445,57.174,158.953,60.92q2.067,1.933,3.968,4.032M136,46.571c1.651.635,3.3,1.3,4.889,2.064,1.842-3.715,6.921-14.19,6.921-14.19l-1.937-4.7-4.635,1.968S137.4,42.6,136,46.571m-94.157,62.6c-5.778-.19-37.874-1.143-37.874-1.143L0,111.969l3.968,3.9s32.413-.858,37.905-1.017q-.134-2.839-.032-5.682M70.6,55.269c1.46-1.047,2.952-2.063,4.508-3.015-2.953-4.6-12.889-19.969-12.889-19.969l-5.238-.952-.921,5.206S67.238,50.984,70.6,55.269m-10.444,9.3Q62.1,62.484,64.19,60.54c-4.445-4.762-25.746-27.365-25.746-27.365H32.857l.033,5.556S55.556,60.222,60.16,64.572M82.476,48.349c1.588-.73,3.238-1.4,4.921-2.031-1.429-4.127-5.111-14.572-5.111-14.572l-4.635-1.936-1.937,4.7s4.826,9.937,6.762,13.841M128.095,44c.984-4.54,5.143-23.874,5.143-23.874l-3.048-4.38-4.318,3.015s-2.476,19.651-3.047,24.223c1.777.286,3.524.6,5.269,1.016m-32.476.159c1.714-.445,3.46-.794,5.238-1.111-.539-4.476-3.047-24.223-3.047-24.223l-4.318-3.047-3.048,4.381s4.222,19.619,5.175,24M114.73,42.19c.126-4.54,1.015-38.254,1.015-38.254L111.873,0l-3.937,3.968s.984,33.683,1.143,38.286q2.823-.15,5.651-.065m22.634,80.287.413-.1c2.984-.666,5.619-1.3,7.429-3.937,1.365-2,1.841-4.253,2.413-6.793a32.82,32.82,0,0,1,2.952-8.857l.445-.793-.826.381c-6.794,3.174-9.206,6.634-10.477,10.286a31.939,31.939,0,0,0-.065-5.238l.19-.222c8.128-8.222,2.953-11.08,4.127-19.682l.1-.762-.6.476c-5.3,4.127-5.842,7.239-5.238,12.254-.255-1.143-.571-2.286-.889-3.46a2.522,2.522,0,0,1-.127-.476c1.651-7.143-.317-9.428-2.857-12.413a22.976,22.976,0,0,1-3.905-5.841l-.317-.666-.254.7c-2.889,7.46-.6,10.127,4,15.428q1.4,1.6,2.762,3.238l.413,1.683a67.418,67.418,0,0,1,1.651,10,7.218,7.218,0,0,0-.159-.793c-1.334-6.635-2-9.968-9.873-12.6l-.761-.254.381.73c4.064,7.365.065,11.3,10.508,16.349a29.9,29.9,0,0,1-3.143,12.127,1.155,1.155,0,0,0-.159.349,16.908,16.908,0,0,0-2.762-14.54l-.508-.666-.065.826c-.795,8.826-7.9,11.555-.445,20.126a23.131,23.131,0,0,1-7.174,5.206,11.284,11.284,0,0,0,2.857-8.349c0-.666,0-1.047.032-1.682l-.6.73a19.835,19.835,0,0,1-4.635,3.9c-3.048,2.064-5.556,3.778-4.825,9.079q-2.846,1.643-5.524,3.555-2.674-1.91-5.523-3.555c.729-5.3-1.778-7.016-4.826-9.079a20.613,20.613,0,0,1-4.667-3.9l-.572-.73c.032.635.032,1.016.032,1.682a11.275,11.275,0,0,0,2.857,8.35,23.153,23.153,0,0,1-7.174-5.206c7.46-8.572.349-11.3-.445-20.127l-.065-.826-.508.666a16.909,16.909,0,0,0-2.762,14.54,1.2,1.2,0,0,0-.159-.349,29.413,29.413,0,0,1-3.143-12.127c10.445-5.047,6.413-8.984,10.477-16.349l.381-.73-.73.255c-7.873,2.635-8.539,5.968-9.9,12.6a7.352,7.352,0,0,1-.159.793,67.644,67.644,0,0,1,1.682-10L87.047,96c.921-1.143,1.9-2.254,2.762-3.237,4.571-5.3,6.889-7.969,4-15.429l-.254-.7-.317.667a22.179,22.179,0,0,1-3.937,5.84c-2.54,2.985-4.476,5.271-2.826,12.413a2.9,2.9,0,0,1-.126.476c-.318,1.175-.635,2.317-.889,3.461.6-5.016.065-8.128-5.238-12.255l-.6-.476.1.762c1.175,8.6-4,11.46,4.1,19.682l.221.222a32.309,32.309,0,0,0-.065,5.238c-1.3-3.651-3.682-7.112-10.477-10.286L72.665,102l.444.794a33.947,33.947,0,0,1,2.953,8.857c.571,2.54,1.048,4.793,2.413,6.794,1.81,2.635,4.413,3.27,7.429,3.937l.412.094c.19.508.413.984.635,1.493.413.857.826,1.682,1.239,2.413-2.953-1.873-6.254-2.413-12.16-1.111l-.857.19.761.381c8.73,4.571,6.984,10.635,20.92,9.206l.032-.032c1.143.635,2.317,1.238,3.524,1.873l-.666-.1c-2.92-.254-6.349.571-10.984,3.143l-.952.508,1.079.1c8,.508,9.714,4.508,18.317.381.984.666,1.936,1.4,2.857,2.127q-2.377,1.775-4.571,3.778c-1.048.952-.571,2.127.286,2.857l.222.19c1.936-1.9,3.841-3.682,5.84-5.365,2,1.682,3.905,3.46,5.842,5.365l.222-.19c.825-.73,1.3-1.9.253-2.857-1.4-1.3-2.952-2.572-4.54-3.778.921-.73,1.873-1.46,2.857-2.127,8.6,4.127,10.317.128,18.317-.381l1.079-.1-.952-.508c-4.635-2.572-8.063-3.4-10.984-3.144-.221.032-.476.064-.666.1,1.206-.635,2.381-1.238,3.524-1.873l.032.032c13.905,1.429,12.191-4.635,20.921-9.206l.73-.381-.826-.19c-5.905-1.3-9.206-.762-12.159,1.11.413-.73.826-1.555,1.239-2.412.221-.508.444-.984.635-1.493"/>
</svg>
