<svg xmlns="http://www.w3.org/2000/svg" xmlns:xlink="http://www.w3.org/1999/xlink" width="23.482" height="32.19" viewBox="0 0 23.482 32.19">
  <defs>
    <clipPath id="clip-path">
      <rect id="Rectangle_2408" data-name="Rectangle 2408" width="23.482" height="32.19" fill="#1c0401"/>
    </clipPath>
  </defs>
  <g id="Group_4410" data-name="Group 4410" transform="translate(-457.759 -828.424)">
    <g id="Group_4412" data-name="Group 4412" transform="translate(457.759 828.424)">
      <g id="Group_4411" data-name="Group 4411" clip-path="url(#clip-path)">
        <path id="Path_1575" data-name="Path 1575" d="M19.6,11.745a12.159,12.159,0,0,0,3.133-5.3A22.832,22.832,0,0,0,19.777,0c-1.3,8.733-9.607,12.883-14.392,18.428-3.469,4.02-1.972,6.711-.887,7.887a74.34,74.34,0,0,0,6.968-7.1l1.054-.6A33.862,33.862,0,0,1,2.22,29.331h0c-.659.436-1.405.89-2.22,1.319l.232,1.54a24.6,24.6,0,0,0,6.412-4.482s5.674,1.2,11.452-4.277a15.742,15.742,0,0,0,5.358-12.817c-.814.565-2.575,1.614-3.849,1.131" fill="#1c0401"/>
      </g>
    </g>
  </g>
</svg>
