<svg xmlns="http://www.w3.org/2000/svg" xmlns:xlink="http://www.w3.org/1999/xlink" width="34.159" height="37.035" viewBox="0 0 34.159 37.035">
  <defs>
    <clipPath id="clip-path">
      <rect id="Rectangle_2405" data-name="Rectangle 2405" width="34.159" height="37.035" fill="#1c0401"/>
    </clipPath>
  </defs>
  <g id="Group_4404" data-name="Group 4404" clip-path="url(#clip-path)">
    <path id="Path_1569" data-name="Path 1569" d="M94,147.155a15.172,15.172,0,0,1,.277,4.036,6.431,6.431,0,0,1-.991,3.292l.02-.023,2.2,1.939a8.516,8.516,0,0,0,1.656-4.581,16.445,16.445,0,0,0-.041-3.731Z" transform="translate(-75.667 -119.364)" fill="#1c0401"/>
    <path id="Path_1570" data-name="Path 1570" d="M28,59.02l-.755-1.367-1.1,1.109a9.651,9.651,0,0,1-6.378,2.26c.137.663.478,1.781.645,2.314a12.7,12.7,0,0,0,6.2-1.984L31.2,69.574c-1.4.972-4.942,2.743-10.519.98l-.4-.124a31.175,31.175,0,0,0-3.443-.848,20.877,20.877,0,0,0-3.744-.366,13.464,13.464,0,0,0-3.405.407,8.812,8.812,0,0,0-2.161.861L2.933,62.253c1.027-.595,3.447-1.455,7.985-.582-.1-.922-.181-2.1-.2-2.418a15.834,15.834,0,0,0-6.76.1A6.8,6.8,0,0,0,.527,61.187L0,61.807,6.818,74.022s2.946-3.443,10.93-1.853a21.645,21.645,0,0,1,2.23.62c.361.114.713.214,1.06.3,7.973,2.051,12.314-2.214,12.5-2.4l.619-.626Z" transform="translate(0 -46.765)" fill="#1c0401"/>
    <path id="Path_1571" data-name="Path 1571" d="M62.053,5.538,63.47,8.931l2.638-1.288L62.58,0,54.734,3.733,56.022,6.37l.144-.07,3.485-2.05h.1a3.774,3.774,0,0,0-.6.867,16,16,0,0,0-1.152,8s.256,1.914.444,2.57h0l3.275.767a10.262,10.262,0,0,1-.635-2.489A14.2,14.2,0,0,1,61.1,8.687a16.807,16.807,0,0,1,.891-3.01c-.006-.124-.017-.2-.017-.2Z" transform="translate(-44.397 -0.001)" fill="#1c0401"/>
  </g>
</svg>
