<svg xmlns="http://www.w3.org/2000/svg" xmlns:xlink="http://www.w3.org/1999/xlink" width="33.018" height="31.969" viewBox="0 0 33.018 31.969">
  <defs>
    <clipPath id="clip-path">
      <rect id="Rectangle_2407" data-name="Rectangle 2407" width="33.018" height="31.969" fill="#1c0401"/>
    </clipPath>
  </defs>
  <g id="Group_4407" data-name="Group 4407" transform="translate(-452.991 -828.515)">
    <g id="Group_4409" data-name="Group 4409" transform="translate(452.991 828.515)">
      <g id="Group_4408" data-name="Group 4408" clip-path="url(#clip-path)">
        <path id="Path_1572" data-name="Path 1572" d="M121.36,19.987a37.633,37.633,0,0,0-2.272-5.071,35.053,35.053,0,0,1-1.717-3.7,6.015,6.015,0,0,1,.819-5.936L116.559,0c-3.749,2.222-5.54,7.1-4.154,11.987a24.368,24.368,0,0,0,2.475,5.58c2.235,3.812,2.539,6.055.641,9.07l.942,3.052.546,1.771.157.51c3.7-2.2,5.553-7.318,4.192-11.982" transform="translate(-88.787)" fill="#1c0401"/>
        <path id="Path_1573" data-name="Path 1573" d="M65.39,19.987a37.581,37.581,0,0,0-2.272-5.071,35.178,35.178,0,0,1-1.717-3.7,6.015,6.015,0,0,1,.819-5.936L60.589,0c-3.748,2.222-5.54,7.1-4.154,11.987a24.377,24.377,0,0,0,2.475,5.58c2.235,3.812,2.539,6.055.641,9.07l.942,3.052.546,1.771.157.51c3.7-2.2,5.553-7.318,4.192-11.982" transform="translate(-44.393)" fill="#1c0401"/>
        <path id="Path_1574" data-name="Path 1574" d="M9.422,19.987A37.581,37.581,0,0,0,7.15,14.917a35.094,35.094,0,0,1-1.717-3.7,6.015,6.015,0,0,1,.819-5.936L4.621,0C.873,2.222-.919,7.1.468,11.987a24.368,24.368,0,0,0,2.475,5.58c2.235,3.812,2.539,6.055.641,9.07l.942,3.052.546,1.771.157.51c3.7-2.2,5.553-7.318,4.192-11.982" transform="translate(0)" fill="#1c0401"/>
      </g>
    </g>
  </g>
</svg>
